<mxfile host="app.diagrams.net" modified="2023-10-14T05:00:18.872Z" agent="Mozilla/5.0 (Windows NT 10.0; Win64; x64) AppleWebKit/537.36 (KHTML, like Gecko) Chrome/117.0.0.0 Safari/537.36" etag="cOgsjr-u8c5GxbbgoQ73" version="22.0.4" type="github">
  <diagram name="Page-1" id="2YBvvXClWsGukQMizWep">
    <mxGraphModel dx="1221" dy="820" grid="1" gridSize="10" guides="1" tooltips="1" connect="1" arrows="1" fold="1" page="1" pageScale="1" pageWidth="850" pageHeight="1100" math="0" shadow="0">
      <root>
        <mxCell id="0" />
        <mxCell id="1" parent="0" />
        <mxCell id="AXEY_ctCfN2J7z40cRq--1" value="PC端管理后台" style="shape=umlLifeline;perimeter=lifelinePerimeter;whiteSpace=wrap;html=1;container=0;dropTarget=0;collapsible=0;recursiveResize=0;outlineConnect=0;portConstraint=eastwest;newEdgeStyle={&quot;edgeStyle&quot;:&quot;elbowEdgeStyle&quot;,&quot;elbow&quot;:&quot;vertical&quot;,&quot;curved&quot;:0,&quot;rounded&quot;:0};" parent="1" vertex="1">
          <mxGeometry x="107" y="87" width="100" height="700" as="geometry" />
        </mxCell>
        <mxCell id="AXEY_ctCfN2J7z40cRq--2" value="" style="html=1;points=[];perimeter=orthogonalPerimeter;outlineConnect=0;targetShapes=umlLifeline;portConstraint=eastwest;newEdgeStyle={&quot;edgeStyle&quot;:&quot;elbowEdgeStyle&quot;,&quot;elbow&quot;:&quot;vertical&quot;,&quot;curved&quot;:0,&quot;rounded&quot;:0};" parent="AXEY_ctCfN2J7z40cRq--1" vertex="1">
          <mxGeometry x="45" y="70" width="10" height="90" as="geometry" />
        </mxCell>
        <mxCell id="AXEY_ctCfN2J7z40cRq--3" value="确认报名" style="html=1;verticalAlign=bottom;startArrow=oval;endArrow=block;startSize=8;edgeStyle=elbowEdgeStyle;elbow=vertical;curved=0;rounded=0;" parent="AXEY_ctCfN2J7z40cRq--1" target="AXEY_ctCfN2J7z40cRq--2" edge="1">
          <mxGeometry relative="1" as="geometry">
            <mxPoint x="-15" y="70" as="sourcePoint" />
          </mxGeometry>
        </mxCell>
        <mxCell id="AXEY_ctCfN2J7z40cRq--4" value="" style="html=1;points=[];perimeter=orthogonalPerimeter;outlineConnect=0;targetShapes=umlLifeline;portConstraint=eastwest;newEdgeStyle={&quot;edgeStyle&quot;:&quot;elbowEdgeStyle&quot;,&quot;elbow&quot;:&quot;vertical&quot;,&quot;curved&quot;:0,&quot;rounded&quot;:0};" parent="AXEY_ctCfN2J7z40cRq--1" vertex="1">
          <mxGeometry x="45" y="320" width="10" height="120" as="geometry" />
        </mxCell>
        <mxCell id="AXEY_ctCfN2J7z40cRq--5" value="" style="html=1;points=[];perimeter=orthogonalPerimeter;outlineConnect=0;targetShapes=umlLifeline;portConstraint=eastwest;newEdgeStyle={&quot;edgeStyle&quot;:&quot;elbowEdgeStyle&quot;,&quot;elbow&quot;:&quot;vertical&quot;,&quot;curved&quot;:0,&quot;rounded&quot;:0};" parent="AXEY_ctCfN2J7z40cRq--1" vertex="1">
          <mxGeometry x="45" y="180" width="10" height="110" as="geometry" />
        </mxCell>
        <mxCell id="0L7UQTy4tTHELYJcq_3x-6" value="" style="html=1;points=[];perimeter=orthogonalPerimeter;outlineConnect=0;targetShapes=umlLifeline;portConstraint=eastwest;newEdgeStyle={&quot;edgeStyle&quot;:&quot;elbowEdgeStyle&quot;,&quot;elbow&quot;:&quot;vertical&quot;,&quot;curved&quot;:0,&quot;rounded&quot;:0};" vertex="1" parent="AXEY_ctCfN2J7z40cRq--1">
          <mxGeometry x="45" y="570" width="10" height="80" as="geometry" />
        </mxCell>
        <mxCell id="0L7UQTy4tTHELYJcq_3x-4" value="" style="endArrow=classic;html=1;rounded=0;" edge="1" parent="AXEY_ctCfN2J7z40cRq--1">
          <mxGeometry width="50" height="50" relative="1" as="geometry">
            <mxPoint x="55" y="595" as="sourcePoint" />
            <mxPoint x="55" y="625" as="targetPoint" />
            <Array as="points">
              <mxPoint x="233" y="595" />
              <mxPoint x="233" y="625" />
            </Array>
          </mxGeometry>
        </mxCell>
        <mxCell id="0L7UQTy4tTHELYJcq_3x-5" value="生成支付二维码" style="edgeLabel;html=1;align=center;verticalAlign=middle;resizable=0;points=[];" vertex="1" connectable="0" parent="0L7UQTy4tTHELYJcq_3x-4">
          <mxGeometry x="-0.5775" relative="1" as="geometry">
            <mxPoint y="-12" as="offset" />
          </mxGeometry>
        </mxCell>
        <mxCell id="AXEY_ctCfN2J7z40cRq--6" value="后台" style="shape=umlLifeline;perimeter=lifelinePerimeter;whiteSpace=wrap;html=1;container=0;dropTarget=0;collapsible=0;recursiveResize=0;outlineConnect=0;portConstraint=eastwest;newEdgeStyle={&quot;edgeStyle&quot;:&quot;elbowEdgeStyle&quot;,&quot;elbow&quot;:&quot;vertical&quot;,&quot;curved&quot;:0,&quot;rounded&quot;:0};" parent="1" vertex="1">
          <mxGeometry x="497" y="87" width="100" height="700" as="geometry" />
        </mxCell>
        <mxCell id="AXEY_ctCfN2J7z40cRq--7" value="" style="html=1;points=[];perimeter=orthogonalPerimeter;outlineConnect=0;targetShapes=umlLifeline;portConstraint=eastwest;newEdgeStyle={&quot;edgeStyle&quot;:&quot;elbowEdgeStyle&quot;,&quot;elbow&quot;:&quot;vertical&quot;,&quot;curved&quot;:0,&quot;rounded&quot;:0};" parent="AXEY_ctCfN2J7z40cRq--6" vertex="1">
          <mxGeometry x="45" y="70" width="10" height="90" as="geometry" />
        </mxCell>
        <mxCell id="AXEY_ctCfN2J7z40cRq--8" value="" style="html=1;points=[];perimeter=orthogonalPerimeter;outlineConnect=0;targetShapes=umlLifeline;portConstraint=eastwest;newEdgeStyle={&quot;edgeStyle&quot;:&quot;elbowEdgeStyle&quot;,&quot;elbow&quot;:&quot;vertical&quot;,&quot;curved&quot;:0,&quot;rounded&quot;:0};" parent="AXEY_ctCfN2J7z40cRq--6" vertex="1">
          <mxGeometry x="45" y="459" width="10" height="80" as="geometry" />
        </mxCell>
        <mxCell id="AXEY_ctCfN2J7z40cRq--9" value="" style="html=1;points=[];perimeter=orthogonalPerimeter;outlineConnect=0;targetShapes=umlLifeline;portConstraint=eastwest;newEdgeStyle={&quot;edgeStyle&quot;:&quot;elbowEdgeStyle&quot;,&quot;elbow&quot;:&quot;vertical&quot;,&quot;curved&quot;:0,&quot;rounded&quot;:0};" parent="AXEY_ctCfN2J7z40cRq--6" vertex="1">
          <mxGeometry x="45" y="319" width="10" height="120" as="geometry" />
        </mxCell>
        <mxCell id="AXEY_ctCfN2J7z40cRq--10" value="调用后端生成订单接口，参数：schoolId，drivingModel" style="html=1;verticalAlign=bottom;endArrow=block;edgeStyle=elbowEdgeStyle;elbow=vertical;curved=0;rounded=0;" parent="1" source="AXEY_ctCfN2J7z40cRq--2" target="AXEY_ctCfN2J7z40cRq--7" edge="1">
          <mxGeometry relative="1" as="geometry">
            <mxPoint x="82" y="187" as="sourcePoint" />
            <Array as="points">
              <mxPoint x="227" y="187" />
            </Array>
            <mxPoint x="527" y="187" as="targetPoint" />
          </mxGeometry>
        </mxCell>
        <mxCell id="AXEY_ctCfN2J7z40cRq--11" value="" style="endArrow=classic;html=1;rounded=0;" parent="1" target="AXEY_ctCfN2J7z40cRq--2" edge="1">
          <mxGeometry width="50" height="50" relative="1" as="geometry">
            <mxPoint x="542" y="217" as="sourcePoint" />
            <mxPoint x="187" y="217" as="targetPoint" />
          </mxGeometry>
        </mxCell>
        <mxCell id="AXEY_ctCfN2J7z40cRq--12" value="返回订单Id：orderId" style="edgeLabel;html=1;align=center;verticalAlign=middle;resizable=0;points=[];" parent="AXEY_ctCfN2J7z40cRq--11" vertex="1" connectable="0">
          <mxGeometry x="0.0411" y="-1" relative="1" as="geometry">
            <mxPoint as="offset" />
          </mxGeometry>
        </mxCell>
        <mxCell id="AXEY_ctCfN2J7z40cRq--15" value="契约锁" style="shape=umlLifeline;perimeter=lifelinePerimeter;whiteSpace=wrap;html=1;container=0;dropTarget=0;collapsible=0;recursiveResize=0;outlineConnect=0;portConstraint=eastwest;newEdgeStyle={&quot;edgeStyle&quot;:&quot;elbowEdgeStyle&quot;,&quot;elbow&quot;:&quot;vertical&quot;,&quot;curved&quot;:0,&quot;rounded&quot;:0};" parent="1" vertex="1">
          <mxGeometry x="647" y="87" width="100" height="700" as="geometry" />
        </mxCell>
        <mxCell id="AXEY_ctCfN2J7z40cRq--16" value="" style="html=1;points=[];perimeter=orthogonalPerimeter;outlineConnect=0;targetShapes=umlLifeline;portConstraint=eastwest;newEdgeStyle={&quot;edgeStyle&quot;:&quot;elbowEdgeStyle&quot;,&quot;elbow&quot;:&quot;vertical&quot;,&quot;curved&quot;:0,&quot;rounded&quot;:0};" parent="AXEY_ctCfN2J7z40cRq--15" vertex="1">
          <mxGeometry x="45" y="317" width="10" height="123" as="geometry" />
        </mxCell>
        <mxCell id="AXEY_ctCfN2J7z40cRq--19" value="" style="endArrow=classic;html=1;rounded=0;" parent="1" edge="1">
          <mxGeometry width="50" height="50" relative="1" as="geometry">
            <mxPoint x="162" y="425" as="sourcePoint" />
            <mxPoint x="542" y="427" as="targetPoint" />
          </mxGeometry>
        </mxCell>
        <mxCell id="AXEY_ctCfN2J7z40cRq--20" value="嵌入契约锁页面，执行个人认证、合同签署" style="edgeLabel;html=1;align=center;verticalAlign=middle;resizable=0;points=[];" parent="AXEY_ctCfN2J7z40cRq--19" vertex="1" connectable="0">
          <mxGeometry x="-0.1723" y="3" relative="1" as="geometry">
            <mxPoint x="44" as="offset" />
          </mxGeometry>
        </mxCell>
        <mxCell id="AXEY_ctCfN2J7z40cRq--21" value="" style="endArrow=classic;html=1;rounded=0;" parent="1" edge="1">
          <mxGeometry width="50" height="50" relative="1" as="geometry">
            <mxPoint x="542" y="498" as="sourcePoint" />
            <mxPoint x="162" y="498" as="targetPoint" />
          </mxGeometry>
        </mxCell>
        <mxCell id="AXEY_ctCfN2J7z40cRq--22" value="签约完成" style="edgeLabel;html=1;align=center;verticalAlign=middle;resizable=0;points=[];" parent="AXEY_ctCfN2J7z40cRq--21" vertex="1" connectable="0">
          <mxGeometry x="0.0063" y="-2" relative="1" as="geometry">
            <mxPoint as="offset" />
          </mxGeometry>
        </mxCell>
        <mxCell id="AXEY_ctCfN2J7z40cRq--23" value="" style="html=1;points=[];perimeter=orthogonalPerimeter;outlineConnect=0;targetShapes=umlLifeline;portConstraint=eastwest;newEdgeStyle={&quot;edgeStyle&quot;:&quot;elbowEdgeStyle&quot;,&quot;elbow&quot;:&quot;vertical&quot;,&quot;curved&quot;:0,&quot;rounded&quot;:0};" parent="1" vertex="1">
          <mxGeometry x="152" y="547" width="10" height="80" as="geometry" />
        </mxCell>
        <mxCell id="AXEY_ctCfN2J7z40cRq--24" value="" style="endArrow=classic;html=1;rounded=0;" parent="1" edge="1">
          <mxGeometry width="50" height="50" relative="1" as="geometry">
            <mxPoint x="162" y="567" as="sourcePoint" />
            <mxPoint x="542" y="567" as="targetPoint" />
          </mxGeometry>
        </mxCell>
        <mxCell id="AXEY_ctCfN2J7z40cRq--25" value="调用后端提交订单接口，参数：orderId" style="edgeLabel;html=1;align=center;verticalAlign=middle;resizable=0;points=[];" parent="AXEY_ctCfN2J7z40cRq--24" vertex="1" connectable="0">
          <mxGeometry x="0.0018" relative="1" as="geometry">
            <mxPoint as="offset" />
          </mxGeometry>
        </mxCell>
        <mxCell id="AXEY_ctCfN2J7z40cRq--26" value="" style="endArrow=classic;html=1;rounded=0;" parent="1" edge="1">
          <mxGeometry width="50" height="50" relative="1" as="geometry">
            <mxPoint x="542" y="604" as="sourcePoint" />
            <mxPoint x="162" y="604" as="targetPoint" />
          </mxGeometry>
        </mxCell>
        <mxCell id="AXEY_ctCfN2J7z40cRq--27" value="返回支付二维码url" style="edgeLabel;html=1;align=center;verticalAlign=middle;resizable=0;points=[];" parent="AXEY_ctCfN2J7z40cRq--26" vertex="1" connectable="0">
          <mxGeometry x="-0.0018" y="-1" relative="1" as="geometry">
            <mxPoint as="offset" />
          </mxGeometry>
        </mxCell>
        <mxCell id="AXEY_ctCfN2J7z40cRq--28" value="" style="endArrow=classic;html=1;rounded=0;" parent="1" edge="1">
          <mxGeometry width="50" height="50" relative="1" as="geometry">
            <mxPoint x="162" y="323" as="sourcePoint" />
            <mxPoint x="162" y="353" as="targetPoint" />
            <Array as="points">
              <mxPoint x="330" y="323" />
              <mxPoint x="330" y="353" />
            </Array>
          </mxGeometry>
        </mxCell>
        <mxCell id="AXEY_ctCfN2J7z40cRq--29" value="JS SDK初始化，&lt;br&gt;Url：https://dschool.lizq.com.cn/app-api//dschool/qys/proxy，&lt;br&gt;参数orderId" style="edgeLabel;html=1;align=left;verticalAlign=middle;resizable=0;points=[];" parent="AXEY_ctCfN2J7z40cRq--28" vertex="1" connectable="0">
          <mxGeometry x="-0.5775" relative="1" as="geometry">
            <mxPoint x="-56" y="-25" as="offset" />
          </mxGeometry>
        </mxCell>
        <mxCell id="0L7UQTy4tTHELYJcq_3x-1" value="" style="endArrow=classic;html=1;rounded=0;" edge="1" parent="1">
          <mxGeometry width="50" height="50" relative="1" as="geometry">
            <mxPoint x="552" y="448" as="sourcePoint" />
            <mxPoint x="692" y="448" as="targetPoint" />
          </mxGeometry>
        </mxCell>
        <mxCell id="0L7UQTy4tTHELYJcq_3x-3" value="代理转发" style="edgeLabel;html=1;align=center;verticalAlign=middle;resizable=0;points=[];" vertex="1" connectable="0" parent="0L7UQTy4tTHELYJcq_3x-1">
          <mxGeometry x="-0.0173" y="3" relative="1" as="geometry">
            <mxPoint as="offset" />
          </mxGeometry>
        </mxCell>
        <mxCell id="0L7UQTy4tTHELYJcq_3x-2" value="" style="endArrow=classic;html=1;rounded=0;" edge="1" parent="1">
          <mxGeometry width="50" height="50" relative="1" as="geometry">
            <mxPoint x="692" y="481" as="sourcePoint" />
            <mxPoint x="552" y="481" as="targetPoint" />
          </mxGeometry>
        </mxCell>
        <mxCell id="0L7UQTy4tTHELYJcq_3x-7" value="PC端支付流程" style="text;html=1;strokeColor=none;fillColor=none;align=center;verticalAlign=middle;whiteSpace=wrap;rounded=0;fontStyle=1;fontSize=23;" vertex="1" parent="1">
          <mxGeometry x="347" y="14" width="155" height="30" as="geometry" />
        </mxCell>
      </root>
    </mxGraphModel>
  </diagram>
</mxfile>
